<svg xmlns="http://www.w3.org/2000/svg" xmlns:xlink="http://www.w3.org/1999/xlink" preserveAspectRatio="xMidYMid meet" version="1.0" viewBox="-0.0 0.0 47.9 76.8" zoomAndPan="magnify" style="fill: rgb(0, 0, 0);" original_string_length="7438"><g id="__id145_skfsiy6ea9"><path class="s27" d="m 49.645323,308.85344 c 0.18904,0 0.715061,0.25255 1.156769,0.54688 0.420712,0.31554 1.19874,1.11456 1.724621,1.80862 0.52569,0.67306 1.240761,1.59846 1.59826,2.01897 0.37872,0.42071 2.54489,3.65942 4.81619,7.19268 2.29231,3.53325 4.77398,7.40282 5.510022,8.62277 0.757248,1.21974 1.956009,3.44907 2.69204,4.94215 0.736037,1.49328 1.598264,3.53325 1.934777,4.52164 0.504909,1.55627 0.588893,2.10315 0.588893,4.20631 -0.02164,1.97678 -0.10606,2.62884 -0.483698,3.57524 -0.252359,0.63086 -0.757055,1.61925 -1.135774,2.18713 -0.378508,0.58888 -1.11456,1.4723 -1.640229,1.97699 -0.525909,0.52568 -1.36712,1.24073 -1.892811,1.57726 -0.525899,0.35752 -1.493279,0.92541 -2.145138,1.24094 -0.673071,0.31533 -1.808822,0.73604 -2.52367,0.90421 -0.736251,0.16837 -1.850811,0.31553 -2.48167,0.31553 -0.631082,0 -1.724652,-0.14757 -2.418692,-0.33653 -0.69407,-0.16838 -1.80863,-0.63086 -2.50267,-0.98839 -0.673071,-0.37852 -1.70344,-1.15676 -2.27131,-1.72463 -0.567899,-0.58888 -1.34593,-1.66145 -1.70343,-2.41849 -0.5889,-1.17775 -0.67308,-1.57726 -0.67308,-3.04956 0,-1.3669 0.10607,-1.89279 0.546879,-2.83919 0.294352,-0.65186 1.177552,-1.82961 1.997792,-2.71303 0.799209,-0.84122 2.208319,-2.03997 3.133731,-2.67083 0.925398,-0.60987 2.397498,-1.4301 3.259698,-1.82982 0.86223,-0.39951 1.97698,-0.86221 3.32291,-1.30392 l -1.00939,-1.36691 c -0.546878,-0.75703 -2.08216,-3.02856 -3.40709,-5.04753 -1.324899,-2.01897 -3.47004,-5.40485 -7.10849,-11.35658 l -1.61945,1.19874 c -0.9042,0.67306 -3.91156,2.73402 -6.708781,4.58483 -2.776,1.8506 -5.55222,3.65922 -7.25566,4.62661 l 2.03997,3.15474 c 1.11457,1.72463 3.280921,5.13151 4.81598,7.57119 1.535491,2.43948 3.575451,5.82557 4.521831,7.5712 0.9674,1.72443 2.20813,4.14291 2.75504,5.36286 0.54687,1.21974 1.324901,3.19672 1.72462,4.41646 0.420521,1.21974 0.967399,3.19672 1.219761,4.41646 0.399489,1.80862 0.483669,2.86019 0.483669,5.88876 0,3.32289 -0.0623,3.89077 -0.56787,5.78336 -0.315539,1.15676 -1.030581,3.04956 -1.598271,4.20632 -0.589059,1.15675 -1.598449,2.75501 -2.271519,3.55424 -0.67286,0.82023 -1.8296,1.97678 -2.58663,2.58686 -0.75725,0.60986 -2.20835,1.53527 -3.259921,2.06095 -1.03036,0.52569 -2.64984,1.13577 -3.57525,1.36691 -1.11456,0.27355 -2.3555,0.42072 -3.68041,0.42072 -1.09357,0 -2.58685,-0.1476 -3.30191,-0.31554 -0.73604,-0.16838 -1.95577,-0.63086 -2.734011,-1.00938 -0.778029,-0.35753 -1.976769,-1.19875 -2.64984,-1.82982 -0.75725,-0.69384 -1.4511,-1.61925 -1.78761,-2.3133 -0.42071,-0.88321 -0.5679,-1.57727 -0.63086,-2.94438 -0.0623,-1.28293 0,-2.14515 0.27333,-3.04956 0.18928,-0.69384 0.67307,-1.8716 1.05157,-2.62884 0.37853,-0.75703 1.24073,-2.08195 1.9348,-2.94417 0.673051,-0.86242 1.97698,-2.22933 2.860181,-3.04955 0.90441,-0.82023 2.46068,-2.01898 3.47007,-2.69203 1.00958,-0.67286 2.58685,-1.49308 3.51226,-1.85061 0.9254,-0.35752 2.16613,-0.71504 3.86957,-0.9254 l -1.32491,-3.15473 c -0.73606,-1.74543 -1.9348,-4.52165 -2.69183,-6.20409 -0.75724,-1.68244 -2.12414,-4.60582 -3.04955,-6.51961 -0.90441,-1.9138 -2.776,-5.59422 -4.16411,-8.20207 -1.367121,-2.60784 -3.028581,-5.6574 -3.722621,-6.79295 -0.67286,-1.11477 -1.21974,-2.25033 -1.21974,-2.52367 -0.0216,-0.25255 0.21044,-0.75724 0.4627,-1.09377 0.27334,-0.33653 0.67305,-0.79902 0.90442,-1.00938 0.23136,-0.21035 1.09356,-0.82023 1.892781,-1.38811 0.82023,-0.56788 5.55222,-3.47006 10.51538,-6.47742 4.984331,-3.00757 9.905691,-5.99393 10.936071,-6.64579 1.051581,-0.65207 2.06116,-1.17775 2.27131,-1.19895 z m -12.260981,9.96868 c -5.48904,3.3229 -10.49438,6.43564 -11.10425,6.91934 -0.609871,0.4837 -1.114761,0.9464 -1.093761,1.03038 0,0.10601 0.168351,0.42071 0.39972,0.73624 0.210441,0.33633 1.19873,2.08196 2.208121,3.89057 0.98859,1.82982 2.98657,5.6784 4.43767,8.58079 1.45107,2.90218 3.34387,6.83494 4.22729,8.79094 0.88322,1.93478 2.3975,5.40485 3.364901,7.71836 0.96737,2.3133 1.76661,4.50064 1.76661,4.83697 0.0217,0.33652 -0.14767,0.77823 -0.33653,0.9464 -0.27334,0.23133 -0.88342,0.31553 -2.376481,0.31553 -1.97699,0 -2.06097,0.0207 -4.01695,0.98839 -1.09357,0.54688 -2.60785,1.4513 -3.3649,2.01897 -0.75723,0.56788 -2.20832,1.935 -3.2599,3.02856 -1.05157,1.09357 -2.20834,2.50267 -2.565661,3.13353 -0.37872,0.63107 -0.883409,1.70365 -1.135749,2.39749 -0.336541,0.9676 -0.420521,1.64046 -0.357531,2.86041 0.0416,1.32491 0.16835,1.76641 0.69404,2.62884 0.42052,0.69405 1.09357,1.32491 1.997981,1.93478 0.75705,0.50469 1.97679,1.09357 2.73404,1.32492 0.9464,0.29454 1.95576,0.42071 3.2597,0.42071 1.05157,0 2.46068,-0.14757 3.15472,-0.33653 0.69407,-0.16837 2.10315,-0.73604 3.154531,-1.24094 1.4301,-0.69384 2.33452,-1.32491 3.65942,-2.56565 1.00961,-0.96739 2.14514,-2.29231 2.67105,-3.13374 0.50469,-0.82002 1.19874,-2.22912 1.53527,-3.15453 0.33632,-0.9254 0.77803,-2.48167 0.9674,-3.47006 0.29433,-1.43009 0.357509,-2.39769 0.25234,-4.73199 -0.0851,-2.01897 -0.29455,-3.63844 -0.65208,-5.15272 -0.27333,-1.21974 -0.82021,-3.07034 -1.17774,-4.10092 -0.37853,-1.03058 -1.26173,-3.13374 -1.97676,-4.62682 -0.71507,-1.49328 -1.93502,-3.82758 -2.69205,-5.15271 -0.75703,-1.32492 -2.839181,-4.73179 -4.626821,-7.57099 -1.78761,-2.8392 -3.93275,-6.18309 -4.77398,-7.46602 -0.82023,-1.28293 -1.61945,-2.64983 -1.74564,-3.04955 -0.18927,-0.58888 -0.16835,-0.84122 0.0851,-1.26173 0.16835,-0.29454 1.28294,-1.13576 2.50267,-1.87181 1.19874,-0.75724 3.99596,-2.56585 6.18309,-4.01694 2.208321,-1.47209 5.131701,-3.49106 6.519621,-4.50065 1.38809,-0.98839 2.713021,-1.80861 2.944359,-1.80861 0.23136,0 0.630862,0.21037 0.883412,0.4627 0.27336,0.27334 0.483698,0.54668 0.483698,0.65186 0,0.0852 0.27336,0.54688 0.60987,1.05157 0.336532,0.4837 2.039972,3.19673 3.806601,6.03592 1.76662,2.8392 3.974751,6.28827 4.942361,7.67638 0.94619,1.3879 2.08194,2.92317 2.502461,3.42787 0.610079,0.71504 0.75724,1.05157 0.75724,1.76662 0.0217,0.5049 -0.106061,1.00959 -0.252362,1.15676 -0.147659,0.14757 -0.736029,0.35752 -1.325118,0.4627 -0.567661,0.10601 -1.47207,0.35752 -1.997761,0.54689 -0.52588,0.18915 -1.703652,0.73604 -2.628841,1.21974 -0.92541,0.48369 -2.187351,1.28292 -2.83921,1.76662 -0.63105,0.50469 -1.66144,1.49308 -2.25031,2.20813 -0.694069,0.84122 -1.19874,1.68244 -1.346121,2.27132 -0.147669,0.54689 -0.189029,1.34612 -0.106058,1.8928 0.0851,0.52589 0.357528,1.32491 0.631079,1.78762 0.27333,0.4627 0.904189,1.19874 1.409081,1.64045 0.5047,0.44171 1.408919,1.03059 1.976789,1.32492 q 1.051581,0.52589 2.628839,0.65206 c 1.177743,0.0852 1.892811,0.0207 2.839212,-0.25234 0.69404,-0.18916 1.82979,-0.65207 2.523639,-1.00959 0.694071,-0.37852 1.871811,-1.28293 2.629061,-2.03997 0.799021,-0.79923 1.640449,-1.8928 1.99798,-2.62884 0.58868,-1.15675 0.63086,-1.43009 0.63086,-3.47006 0,-1.87181 -0.106059,-2.46068 -0.58887,-3.89078 -0.33654,-0.9254 -1.11478,-2.71302 -1.745639,-3.99595 -0.65205,-1.28293 -1.640451,-3.11254 -2.250321,-4.10093 -0.58887,-0.98859 -3.00736,-4.77419 -5.362869,-8.41242 -2.376483,-3.63843 -4.942333,-7.48701 -5.720393,-8.51759 -0.778208,-1.03058 -1.556258,-1.99798 -1.724618,-2.14514 -0.252362,-0.21037 -0.52569,-0.1268 -1.451091,0.4417 -0.63087,0.37852 -5.63621,3.40688 -11.125451,6.72977 z" fill-rule="evenodd" transform="translate(-21.841 -308.853)" style="fill: rgb(0, 0, 0);"/></g></svg>